<svg width="40" height="40" viewBox="0 0 40 40" fill="none" xmlns="http://www.w3.org/2000/svg">
<g clip-path="url(#clip0_709_3526)">
<rect x="1" y="1" width="38" height="38" rx="15" stroke="url(#paint0_linear_709_3526)" stroke-width="2"/>
<path fill-rule="evenodd" clip-rule="evenodd" d="M13.1448 42.5002C13.2894 41.3697 13.4661 39.6946 13.4376 38.4377C13.4251 37.8869 13.3717 37.3192 13.3166 36.7332C13.2059 35.556 13.0882 34.305 13.2813 32.969C13.5521 31.0959 14.6876 29.6877 14.6876 29.6877L10.0001 26.5627C10.0001 26.5627 8.72315 25.8109 8.59385 25.0002C8.50794 24.4616 8.74452 24.114 9.01418 23.7179C9.13671 23.5378 9.26606 23.3478 9.3751 23.1252C10.1867 21.4686 12.0313 19.219 12.0313 19.219C12.0313 19.219 12.4179 17.1651 13.2813 16.2502C13.2962 16.2345 13.3109 16.2189 13.3253 16.2036C13.7188 15.7862 13.9775 15.5118 14.5313 15.3127C14.8806 15.1872 15.4688 15.1565 15.4688 15.1565V13.594L16.5626 10.7815L17.5001 7.03148C17.5001 7.03148 18.1251 5.31273 19.3751 5.00023C20.6251 4.68773 21.4063 5.15648 22.3438 5.93773C23.2813 6.71898 23.5938 7.18773 23.7501 7.65648C23.7501 7.65648 24.0735 8.70154 23.7501 9.21898C23.6792 9.33234 23.5958 9.39679 23.5114 9.46196C23.4323 9.523 23.3524 9.58466 23.2813 9.68773C23.1484 9.8805 23.1422 10.0083 23.1342 10.1724C23.1321 10.216 23.1299 10.2621 23.1251 10.3127C23.1201 10.366 23.1194 10.4286 23.1187 10.4954C23.1172 10.6398 23.1155 10.8042 23.0691 10.9377C22.9368 11.3189 22.8549 11.4585 22.6563 11.719C22.4115 12.04 22.1876 12.344 21.8751 12.8127C21.8301 12.8802 21.7497 13.2832 21.7243 13.4103C21.722 13.4219 21.7202 13.4312 21.7188 13.4377V13.4445C21.7188 13.7504 21.7188 13.7651 21.8751 14.0627C22.0592 14.4135 22.3375 14.5147 22.6921 14.6435C22.7313 14.6578 22.7715 14.6724 22.8126 14.6877C23.162 14.818 23.5412 14.7553 23.8717 14.7006C24.1361 14.6569 24.3693 14.6183 24.5313 14.6877C24.8959 14.844 25.7813 15.5002 26.4063 16.8752C27.0313 18.2502 28.7501 20.6773 29.5313 21.719C30.1043 22.2919 31.1563 23.594 30.7813 24.219C30.4063 24.844 27.9168 27.2919 26.7188 28.4377C26.7188 28.4377 26.8751 28.9065 25.9376 29.5315C25.0001 30.1565 24.8438 30.3127 24.8438 30.3127L25.3126 31.8752C25.3126 31.8752 25.9818 33.6837 26.4063 34.844C26.6741 35.5758 26.9186 36.1954 27.1492 36.7795C27.6095 37.946 28.0142 38.9715 28.4376 40.469C28.6161 41.1001 28.8274 41.9706 28.9529 42.5002H24.3497C23.8057 41.4877 22.7265 39.4526 22.0313 37.969C21.5214 36.8806 20.7813 35.1565 20.7813 35.1565L19.3751 34.219C19.3751 34.219 18.7688 37.4997 18.1251 39.5315C17.8323 40.4556 17.3653 41.647 17.018 42.5002H13.1448ZM24.2188 25.3127L24.3751 27.6565L25.1563 27.0315L25.7813 27.1877C25.7813 27.1877 26.5744 26.3569 27.0313 25.7815C27.7154 24.92 28.5938 23.4377 28.5938 23.4377C28.5938 23.4377 27.7048 22.6109 27.1876 22.0315C26.5211 21.2849 25.6251 20.0002 25.6251 20.0002C25.6251 20.0002 25.5152 20.5228 25.3126 20.7815C25.1245 21.0217 24.6876 21.2502 24.6876 21.2502C24.6876 21.2502 24.7429 22.3001 24.6876 22.969C24.6107 23.8992 24.2188 25.3127 24.2188 25.3127ZM15.3126 27.969C15.3126 27.969 13.6762 27.0614 12.8126 26.2502C12.1179 25.5977 11.2501 24.3752 11.2501 24.3752C11.2501 24.3752 12.3708 22.3858 13.2813 21.2502C13.8488 20.5425 14.8438 19.5315 14.8438 19.5315C14.8438 19.5315 14.6677 21.0202 15.0001 21.8752C15.2392 22.4904 15.9376 23.2815 15.9376 23.2815L15.6251 21.5627L16.8751 23.4377C16.8751 23.4377 16.3831 22.3171 16.4063 21.5627C16.4178 21.1917 16.5626 20.6252 16.5626 20.6252L17.5001 22.8127L18.2813 24.5315C18.2813 24.5315 18.0556 25.3202 17.8126 25.7815C17.4483 26.4728 16.5626 27.344 16.5626 27.344H16.0938L15.3126 27.969Z" fill="white"/>
<path fill-rule="evenodd" clip-rule="evenodd" d="M13.1448 42.5002C13.2894 41.3697 13.4661 39.6946 13.4376 38.4377C13.4251 37.8869 13.3717 37.3192 13.3166 36.7332C13.2059 35.556 13.0882 34.305 13.2813 32.969C13.5521 31.0959 14.6876 29.6877 14.6876 29.6877L10.0001 26.5627C10.0001 26.5627 8.72315 25.8109 8.59385 25.0002C8.50794 24.4616 8.74452 24.114 9.01418 23.7179C9.13671 23.5378 9.26606 23.3478 9.3751 23.1252C10.1867 21.4686 12.0313 19.219 12.0313 19.219C12.0313 19.219 12.4179 17.1651 13.2813 16.2502C13.2962 16.2345 13.3109 16.2189 13.3253 16.2036C13.7188 15.7862 13.9775 15.5118 14.5313 15.3127C14.8806 15.1872 15.4688 15.1565 15.4688 15.1565V13.594L16.5626 10.7815L17.5001 7.03148C17.5001 7.03148 18.1251 5.31273 19.3751 5.00023C20.6251 4.68773 21.4063 5.15648 22.3438 5.93773C23.2813 6.71898 23.5938 7.18773 23.7501 7.65648C23.7501 7.65648 24.0735 8.70154 23.7501 9.21898C23.6792 9.33234 23.5958 9.39679 23.5114 9.46196C23.4323 9.523 23.3524 9.58466 23.2813 9.68773C23.1484 9.8805 23.1422 10.0083 23.1342 10.1724C23.1321 10.216 23.1299 10.2621 23.1251 10.3127C23.1201 10.366 23.1194 10.4286 23.1187 10.4954C23.1172 10.6398 23.1155 10.8042 23.0691 10.9377C22.9368 11.3189 22.8549 11.4585 22.6563 11.719C22.4115 12.04 22.1876 12.344 21.8751 12.8127C21.8301 12.8802 21.7497 13.2832 21.7243 13.4103C21.722 13.4219 21.7202 13.4312 21.7188 13.4377V13.4445C21.7188 13.7504 21.7188 13.7651 21.8751 14.0627C22.0592 14.4135 22.3375 14.5147 22.6921 14.6435C22.7313 14.6578 22.7715 14.6724 22.8126 14.6877C23.162 14.818 23.5412 14.7553 23.8717 14.7006C24.1361 14.6569 24.3693 14.6183 24.5313 14.6877C24.8959 14.844 25.7813 15.5002 26.4063 16.8752C27.0313 18.2502 28.7501 20.6773 29.5313 21.719C30.1043 22.2919 31.1563 23.594 30.7813 24.219C30.4063 24.844 27.9168 27.2919 26.7188 28.4377C26.7188 28.4377 26.8751 28.9065 25.9376 29.5315C25.0001 30.1565 24.8438 30.3127 24.8438 30.3127L25.3126 31.8752C25.3126 31.8752 25.9818 33.6837 26.4063 34.844C26.6741 35.5758 26.9186 36.1954 27.1492 36.7795C27.6095 37.946 28.0142 38.9715 28.4376 40.469C28.6161 41.1001 28.8274 41.9706 28.9529 42.5002H24.3497C23.8057 41.4877 22.7265 39.4526 22.0313 37.969C21.5214 36.8806 20.7813 35.1565 20.7813 35.1565L19.3751 34.219C19.3751 34.219 18.7688 37.4997 18.1251 39.5315C17.8323 40.4556 17.3653 41.647 17.018 42.5002H13.1448ZM24.2188 25.3127L24.3751 27.6565L25.1563 27.0315L25.7813 27.1877C25.7813 27.1877 26.5744 26.3569 27.0313 25.7815C27.7154 24.92 28.5938 23.4377 28.5938 23.4377C28.5938 23.4377 27.7048 22.6109 27.1876 22.0315C26.5211 21.2849 25.6251 20.0002 25.6251 20.0002C25.6251 20.0002 25.5152 20.5228 25.3126 20.7815C25.1245 21.0217 24.6876 21.2502 24.6876 21.2502C24.6876 21.2502 24.7429 22.3001 24.6876 22.969C24.6107 23.8992 24.2188 25.3127 24.2188 25.3127ZM15.3126 27.969C15.3126 27.969 13.6762 27.0614 12.8126 26.2502C12.1179 25.5977 11.2501 24.3752 11.2501 24.3752C11.2501 24.3752 12.3708 22.3858 13.2813 21.2502C13.8488 20.5425 14.8438 19.5315 14.8438 19.5315C14.8438 19.5315 14.6677 21.0202 15.0001 21.8752C15.2392 22.4904 15.9376 23.2815 15.9376 23.2815L15.6251 21.5627L16.8751 23.4377C16.8751 23.4377 16.3831 22.3171 16.4063 21.5627C16.4178 21.1917 16.5626 20.6252 16.5626 20.6252L17.5001 22.8127L18.2813 24.5315C18.2813 24.5315 18.0556 25.3202 17.8126 25.7815C17.4483 26.4728 16.5626 27.344 16.5626 27.344H16.0938L15.3126 27.969Z" fill="white"/>
<path fill-rule="evenodd" clip-rule="evenodd" d="M13.1448 42.5002C13.2894 41.3697 13.4661 39.6946 13.4376 38.4377C13.4251 37.8869 13.3717 37.3192 13.3166 36.7332C13.2059 35.556 13.0882 34.305 13.2813 32.969C13.5521 31.0959 14.6876 29.6877 14.6876 29.6877L10.0001 26.5627C10.0001 26.5627 8.72315 25.8109 8.59385 25.0002C8.50794 24.4616 8.74452 24.114 9.01418 23.7179C9.13671 23.5378 9.26606 23.3478 9.3751 23.1252C10.1867 21.4686 12.0313 19.219 12.0313 19.219C12.0313 19.219 12.4179 17.1651 13.2813 16.2502C13.2962 16.2345 13.3109 16.2189 13.3253 16.2036C13.7188 15.7862 13.9775 15.5118 14.5313 15.3127C14.8806 15.1872 15.4688 15.1565 15.4688 15.1565V13.594L16.5626 10.7815L17.5001 7.03148C17.5001 7.03148 18.1251 5.31273 19.3751 5.00023C20.6251 4.68773 21.4063 5.15648 22.3438 5.93773C23.2813 6.71898 23.5938 7.18773 23.7501 7.65648C23.7501 7.65648 24.0735 8.70154 23.7501 9.21898C23.6792 9.33234 23.5958 9.39679 23.5114 9.46196C23.4323 9.523 23.3524 9.58466 23.2813 9.68773C23.1484 9.8805 23.1422 10.0083 23.1342 10.1724C23.1321 10.216 23.1299 10.2621 23.1251 10.3127C23.1201 10.366 23.1194 10.4286 23.1187 10.4954C23.1172 10.6398 23.1155 10.8042 23.0691 10.9377C22.9368 11.3189 22.8549 11.4585 22.6563 11.719C22.4115 12.04 22.1876 12.344 21.8751 12.8127C21.8301 12.8802 21.7497 13.2832 21.7243 13.4103C21.722 13.4219 21.7202 13.4312 21.7188 13.4377V13.4445C21.7188 13.7504 21.7188 13.7651 21.8751 14.0627C22.0592 14.4135 22.3375 14.5147 22.6921 14.6435C22.7313 14.6578 22.7715 14.6724 22.8126 14.6877C23.162 14.818 23.5412 14.7553 23.8717 14.7006C24.1361 14.6569 24.3693 14.6183 24.5313 14.6877C24.8959 14.844 25.7813 15.5002 26.4063 16.8752C27.0313 18.2502 28.7501 20.6773 29.5313 21.719C30.1043 22.2919 31.1563 23.594 30.7813 24.219C30.4063 24.844 27.9168 27.2919 26.7188 28.4377C26.7188 28.4377 26.8751 28.9065 25.9376 29.5315C25.0001 30.1565 24.8438 30.3127 24.8438 30.3127L25.3126 31.8752C25.3126 31.8752 25.9818 33.6837 26.4063 34.844C26.6741 35.5758 26.9186 36.1954 27.1492 36.7795C27.6095 37.946 28.0142 38.9715 28.4376 40.469C28.6161 41.1001 28.8274 41.9706 28.9529 42.5002H24.3497C23.8057 41.4877 22.7265 39.4526 22.0313 37.969C21.5214 36.8806 20.7813 35.1565 20.7813 35.1565L19.3751 34.219C19.3751 34.219 18.7688 37.4997 18.1251 39.5315C17.8323 40.4556 17.3653 41.647 17.018 42.5002H13.1448ZM24.2188 25.3127L24.3751 27.6565L25.1563 27.0315L25.7813 27.1877C25.7813 27.1877 26.5744 26.3569 27.0313 25.7815C27.7154 24.92 28.5938 23.4377 28.5938 23.4377C28.5938 23.4377 27.7048 22.6109 27.1876 22.0315C26.5211 21.2849 25.6251 20.0002 25.6251 20.0002C25.6251 20.0002 25.5152 20.5228 25.3126 20.7815C25.1245 21.0217 24.6876 21.2502 24.6876 21.2502C24.6876 21.2502 24.7429 22.3001 24.6876 22.969C24.6107 23.8992 24.2188 25.3127 24.2188 25.3127ZM15.3126 27.969C15.3126 27.969 13.6762 27.0614 12.8126 26.2502C12.1179 25.5977 11.2501 24.3752 11.2501 24.3752C11.2501 24.3752 12.3708 22.3858 13.2813 21.2502C13.8488 20.5425 14.8438 19.5315 14.8438 19.5315C14.8438 19.5315 14.6677 21.0202 15.0001 21.8752C15.2392 22.4904 15.9376 23.2815 15.9376 23.2815L15.6251 21.5627L16.8751 23.4377C16.8751 23.4377 16.3831 22.3171 16.4063 21.5627C16.4178 21.1917 16.5626 20.6252 16.5626 20.6252L17.5001 22.8127L18.2813 24.5315C18.2813 24.5315 18.0556 25.3202 17.8126 25.7815C17.4483 26.4728 16.5626 27.344 16.5626 27.344H16.0938L15.3126 27.969Z" fill="url(#paint1_linear_709_3526)"/>
</g>
<defs>
<linearGradient id="paint0_linear_709_3526" x1="20" y1="0" x2="20" y2="40" gradientUnits="userSpaceOnUse">
<stop stop-color="#FA516C"/>
<stop offset="1" stop-color="#FDB365"/>
</linearGradient>
<linearGradient id="paint1_linear_709_3526" x1="19.7181" y1="4.90234" x2="19.7181" y2="42.5002" gradientUnits="userSpaceOnUse">
<stop stop-color="#FA516C"/>
<stop offset="1" stop-color="#FDB365"/>
</linearGradient>
<clipPath id="clip0_709_3526">
<rect width="40" height="40" rx="16" fill="white"/>
</clipPath>
</defs>
</svg>
